<svg width="97" height="18" viewBox="0 0 97 18" fill="none" xmlns="http://www.w3.org/2000/svg">
<path d="M3.56141 17.916V5.22222L11.9915 17.916H15.0809V0.00186467H11.9915V12.6976L3.58623 0.00186467H0.473877V17.916H3.56141Z" fill="white"/>
<path d="M36.5466 2.89468H41.7918V17.918H44.9289V2.89468H50.1741V0.00191128H36.5485V2.89468H36.5466ZM32.0633 17.9161V15.0233H24.0743V10.2689H31.2308V7.5002H24.0743V2.89277H32.0633V0H20.9371V17.9142H32.0633V17.9161Z" fill="white"/>
<path d="M87.7665 5.34446C87.9383 4.85374 88.0854 4.31528 88.1579 3.97159C88.2076 4.34011 88.3794 4.87856 88.5264 5.34446L90.5848 11.1281H85.7329L87.7665 5.34446ZM83.3538 17.9161L84.7992 13.7745H91.4898L92.9353 17.9161H96.2443L89.7752 0.00191128H86.5655L80.0963 17.9161H83.3557H83.3538ZM76.6403 17.9161V15.0233H67.5725L76.4933 2.79348V0H63.9465V2.89277H72.5981L63.7517 14.9985V17.9142H76.6422L76.6403 17.9161Z" fill="white"/>
<path d="M58.2604 0.0762649H55.2703V11.9872H58.2604V0.0762649ZM56.7653 14.3721C55.7858 14.3721 54.9762 15.1683 54.9762 16.1555C54.9762 17.1426 55.7858 17.916 56.7653 17.916C57.7945 17.916 58.6041 17.1446 58.6041 16.1555C58.6041 15.1664 57.7945 14.3721 56.7653 14.3721Z" fill="white"/>
<path d="M56.7902 18C57.792 18 58.6041 17.1879 58.6041 16.1861C58.6041 15.1842 57.792 14.3721 56.7902 14.3721C55.7884 14.3721 54.9762 15.1842 54.9762 16.1861C54.9762 17.1879 55.7884 18 56.7902 18Z" fill="#DBE21A"/>
</svg>
