<svg width="96" height="18" viewBox="0 0 96 18" fill="none" xmlns="http://www.w3.org/2000/svg">
<path d="M3.08753 17.916V5.22222L11.5176 17.916H14.6071V0.00186467H11.5176V12.6976L3.11235 0.00186467H0V17.916H3.08753Z" fill="#0E0E0E"/>
<path d="M36.0727 2.89468H41.3179V17.918H44.4551V2.89468H49.7002V0.00191128H36.0746V2.89468H36.0727ZM31.5894 17.9161V15.0233H23.6004V10.2689H30.7569V7.5002H23.6004V2.89277H31.5894V0H20.4632V17.9142H31.5894V17.9161Z" fill="#0E0E0E"/>
<path d="M87.2926 5.34446C87.4644 4.85374 87.6115 4.31528 87.684 3.97159C87.7337 4.34011 87.9055 4.87856 88.0525 5.34446L90.1109 11.1281H85.2591L87.2926 5.34446ZM82.8799 17.9161L84.3254 13.7745H91.016L92.4614 17.9161H95.7704L89.3013 0.00191128H86.0916L79.6225 17.9161H82.8818H82.8799ZM76.1664 17.9161V15.0233H67.0986L76.0194 2.79348V0H63.4726V2.89277H72.1242L63.2778 14.9985V17.9142H76.1683L76.1664 17.9161Z" fill="#0E0E0E"/>
<path d="M57.7865 0.0762649H54.7964V11.9872H57.7865V0.0762649ZM56.2915 14.3721C55.3119 14.3721 54.5023 15.1683 54.5023 16.1555C54.5023 17.1426 55.3119 17.916 56.2915 17.916C57.3206 17.916 58.1302 17.1446 58.1302 16.1555C58.1302 15.1664 57.3206 14.3721 56.2915 14.3721Z" fill="#0E0E0E"/>
<path d="M56.3163 18C57.3181 18 58.1302 17.1879 58.1302 16.1861C58.1302 15.1842 57.3181 14.3721 56.3163 14.3721C55.3145 14.3721 54.5023 15.1842 54.5023 16.1861C54.5023 17.1879 55.3145 18 56.3163 18Z" fill="#DBE21A"/>
</svg>
